<?xml version="1.0" encoding="UTF-8" standalone="no"?>
<!-- Created with Inkscape (http://www.inkscape.org/) -->

<svg
   xmlns:dc="http://purl.org/dc/elements/1.1/"
   xmlns:cc="http://creativecommons.org/ns#"
   xmlns:rdf="http://www.w3.org/1999/02/22-rdf-syntax-ns#"
   xmlns:svg="http://www.w3.org/2000/svg"
   xmlns="http://www.w3.org/2000/svg"
   xmlns:sodipodi="http://sodipodi.sourceforge.net/DTD/sodipodi-0.dtd"
   xmlns:inkscape="http://www.inkscape.org/namespaces/inkscape"
   version="1.1"
   id="svg10"
   width="2428"
   height="470"
   viewBox="0 0 2428 470"
   sodipodi:docname="Choosicles Logo Large Black Outline.svg"
   inkscape:version="0.92.1 r15371">
  <metadata
     id="metadata16">
    <rdf:RDF>
      <cc:Work
         rdf:about="">
        <dc:format>image/svg+xml</dc:format>
        <dc:type
           rdf:resource="http://purl.org/dc/dcmitype/StillImage" />
        <dc:title></dc:title>
      </cc:Work>
    </rdf:RDF>
  </metadata>
  <defs
     id="defs14" />
  <sodipodi:namedview
     pagecolor="#ffffff"
     bordercolor="#666666"
     borderopacity="1"
     objecttolerance="10"
     gridtolerance="10"
     guidetolerance="10"
     inkscape:pageopacity="0"
     inkscape:pageshadow="2"
     inkscape:window-width="1920"
     inkscape:window-height="1017"
     id="namedview12"
     showgrid="false"
     inkscape:zoom="0.58237232"
     inkscape:cx="1219.2571"
     inkscape:cy="235"
     inkscape:window-x="-8"
     inkscape:window-y="-8"
     inkscape:window-maximized="1"
     inkscape:current-layer="svg10" />
  <text
     xml:space="preserve"
     style="font-style:normal;font-variant:normal;font-weight:normal;font-stretch:normal;font-size:384px;line-height:1.25;font-family:'Summer Joy';-inkscape-font-specification:'Summer Joy';letter-spacing:0px;word-spacing:0px;fill:#000000;fill-opacity:1;stroke:none"
     x="66.967468"
     y="117.99151"
     id="text22"><tspan
       sodipodi:role="line"
       id="tspan20"
       x="66.967468"
       y="453.99152" /></text>
  <text
     xml:space="preserve"
     style="font-style:normal;font-variant:normal;font-weight:normal;font-stretch:normal;font-size:18.66666667px;line-height:1.25;font-family:'Summer Joy';-inkscape-font-specification:'Summer Joy';letter-spacing:0px;word-spacing:0px;fill:#000000;fill-opacity:1;stroke:none;"
     x="37.77652"
     y="440.80905"
     id="text26"><tspan
       sodipodi:role="line"
       id="tspan24"
       x="37.77652"
       y="608.80908" /></text>
  <text
     xml:space="preserve"
     style="font-style:normal;font-variant:normal;font-weight:normal;font-stretch:normal;font-size:384px;line-height:1.25;font-family:'Summer Joy';-inkscape-font-specification:'Summer Joy';letter-spacing:0px;word-spacing:0px;fill:#000000;fill-opacity:1;stroke:none"
     x="157.97453"
     y="114.55728"
     id="text30"><tspan
       sodipodi:role="line"
       id="tspan28"
       x="157.97453"
       y="450.55728" /></text>
  <g
     aria-label="Choosicles"
     style="font-style:normal;font-variant:normal;font-weight:normal;font-stretch:normal;font-size:384px;line-height:1.25;font-family:'Summer Joy';-inkscape-font-specification:'Summer Joy';letter-spacing:0px;word-spacing:0px;fill:#ffcc00;fill-opacity:1;stroke:#000000;stroke-opacity:1;stroke-width:10;stroke-miterlimit:4;stroke-dasharray:none"
     id="text34"
     transform="translate(-82.421499,-34.342291)">
    <path
       d="m 277.02936,451.85796 q -24.96,0 -48,-8.064 -28.8,-10.368 -51.84,-31.872 -22.656,-21.504 -36.096,-50.688 -9.984,-20.736 -13.824,-44.928 -3.456,-24.192 -0.768,-50.304 2.304,-23.808 9.216,-46.464 7.296,-22.656 18.432,-43.392 16.896,-29.952 44.544,-52.224 29.184,-24.192001 62.976,-31.104001 24.96,-5.376 48,-0.384 23.424,4.992 43.776,19.968001 24.96,18.816 34.56,53.76 3.84,14.592 3.84,29.952 0,14.976 -3.456,29.568 l -56.064,-13.824 q 3.84,-15.744 -0.384,-31.488 -3.456,-14.592 -13.056,-21.888 -19.968,-14.976 -45.312,-9.6 -9.984,2.304 -19.968,7.296 -9.6,4.992 -18.816,12.288 -8.832,6.912 -16.512,16.128 -7.68,9.216 -13.44,19.584 -9.216,16.128 -14.592,33.792 -5.376,17.28 -6.912,34.944 -1.152,17.28 1.152,33.792 2.304,16.512 8.832,30.336 8.448,18.432 23.04,32.256 14.592,13.824 32.256,20.352 13.824,4.608 28.8,4.608 14.592,0 28.8,-4.608 14.208,-4.608 25.728,-13.824 17.28,-13.824 26.112,-34.944 8.832,-21.12 6.528,-43.008 l 57.216,-6.528 q 1.92,18.048 -0.768,36.48 -2.688,18.048 -9.984,35.328 -6.912,17.28 -18.048,31.872 -11.136,14.592 -25.344,25.728 -14.208,11.136 -31.104,18.816 -16.896,7.296 -35.328,10.368 -6.144,1.152 -12.288,1.536 -5.76,0.384 -11.904,0.384 z"
       id="path36"
       inkscape:connector-curvature="0"
       style="fill:#ffcc00;stroke:#000000;stroke-opacity:1;stroke-width:10;stroke-miterlimit:4;stroke-dasharray:none" />
    <path
       d="m 665.51736,464.91396 q -1.92,0 -3.456,-0.384 -1.536,0 -3.456,0 -26.112,-3.072 -42.624,-24.192 -12.288,-15.36 -16.512,-37.632 -3.84,-21.12 -4.224,-41.472 0,-20.352 0.384,-40.32 0.768,-19.584 0.384,-37.248 0,-17.664 -3.456,-34.56 -3.456,-18.048 -14.592,-23.04 -9.984,-4.224 -24.96,5.376 -15.744,10.752 -27.264,30.72 -11.52,19.968 -14.592,41.472 -2.304,18.432 -3.84,36.864 -1.536,18.048 -2.688,37.632 -1.536,18.432 -3.072,37.248 -1.152,18.816 -3.456,37.632 l -57.216,-6.912 q 3.84,-31.488 4.608,-67.968 1.152,-36.48 0.384,-74.88 -0.768,-38.4 -3.072,-77.568 -1.92,-39.168 -4.224,-76.8 -1.152,-20.736 -2.304,-39.552 -1.152,-19.200001 -1.92,-37.248001 l 57.6,-2.688 q 0.768,17.664 1.92,36.864001 1.152,18.816 2.304,39.168 0.768,13.824 1.536,28.032 0.768,13.824 1.536,28.416 10.368,-10.368 21.888,-18.432 9.6,-6.144 19.2,-9.984 9.984,-3.84 19.968,-5.376 21.12,-3.072 39.936,4.992 18.816,7.68 31.488,24.576 12.672,16.896 17.28,39.936 4.224,21.888 4.608,43.008 0.384,21.12 -0.384,41.856 -0.384,18.432 -0.384,35.712 0,17.28 3.072,33.792 0.384,0.768 0.768,3.456 0.768,2.304 1.92,4.992 1.152,2.304 2.688,4.608 1.536,1.92 3.84,1.92 3.072,0.768 5.376,-2.304 l 46.08,34.56 q -9.984,13.44 -25.728,20.352 -12.672,5.376 -25.344,5.376 z"
       id="path38"
       inkscape:connector-curvature="0"
       style="fill:#ffcc00;stroke:#000000;stroke-opacity:1;stroke-width:10;stroke-miterlimit:4;stroke-dasharray:none" />
    <path
       d="m 831.41136,447.24996 q -3.456,0 -6.912,0 -3.072,-0.384 -6.528,-0.768 -1.536,-0.384 -3.072,-0.384 -1.536,-0.384 -3.072,-0.768 -21.888,-3.456 -41.088,-12.288 -18.816,-8.832 -34.176,-22.656 -29.184,-26.112 -40.32,-64.512 -6.144,-19.584 -6.144,-39.936 0,-20.736 5.376,-41.088 11.52,-42.624 45.696,-73.728 19.584,-17.28 41.856,-25.728 22.656,-8.448 45.696,-8.064 23.04,0.384 45.312,9.984 22.656,9.216 41.856,27.264 35.712,33.792 46.464,76.032 10.752,42.24 -4.608,86.016 -6.912,20.352 -20.736,37.632 -13.824,17.28 -33.408,29.952 -16.896,11.136 -35.328,17.28 -18.432,5.76 -36.864,5.76 z m -4.992,-232.32 q -12.288,0 -24.192,4.608 -11.52,4.608 -22.272,14.592 -10.368,9.216 -17.664,20.736 -7.296,11.136 -11.136,23.808 -3.456,12.288 -3.84,25.344 0,12.672 3.84,25.344 7.296,24.192 25.344,39.552 18.048,15.36 44.16,19.584 1.152,0.384 1.92,0.384 1.152,0 2.304,0.384 1.536,0 3.072,0.384 1.536,0 3.072,0 11.136,0 22.272,-3.84 11.52,-4.224 21.12,-11.136 9.984,-7.296 17.664,-16.512 7.68,-9.6 11.52,-20.352 6.144,-17.664 5.376,-32.64 -0.384,-15.36 -4.992,-28.032 -4.608,-12.672 -12.288,-22.656 -7.296,-10.368 -15.36,-18.048 -11.136,-10.752 -24.192,-16.128 -12.672,-5.376 -25.728,-5.376 z"
       id="path40"
       inkscape:connector-curvature="0"
       style="fill:#ffcc00;stroke:#000000;stroke-opacity:1;stroke-width:10;stroke-miterlimit:4;stroke-dasharray:none" />
    <path
       d="m 1122.4114,447.24996 q -3.456,0 -6.912,0 -3.072,-0.384 -6.528,-0.768 -1.536,-0.384 -3.072,-0.384 -1.536,-0.384 -3.072,-0.768 -21.888,-3.456 -41.088,-12.288 -18.816,-8.832 -34.176,-22.656 -29.18404,-26.112 -40.32004,-64.512 -6.144,-19.584 -6.144,-39.936 0,-20.736 5.376,-41.088 11.52,-42.624 45.69604,-73.728 19.584,-17.28 41.856,-25.728 22.656,-8.448 45.696,-8.064 23.04,0.384 45.312,9.984 22.656,9.216 41.856,27.264 35.712,33.792 46.464,76.032 10.752,42.24 -4.608,86.016 -6.912,20.352 -20.736,37.632 -13.824,17.28 -33.408,29.952 -16.896,11.136 -35.328,17.28 -18.432,5.76 -36.864,5.76 z m -4.992,-232.32 q -12.288,0 -24.192,4.608 -11.52,4.608 -22.272,14.592 -10.368,9.216 -17.664,20.736 -7.296,11.136 -11.136,23.808 -3.456,12.288 -3.84,25.344 0,12.672 3.84,25.344 7.296,24.192 25.344,39.552 18.048,15.36 44.16,19.584 1.152,0.384 1.92,0.384 1.152,0 2.304,0.384 1.536,0 3.072,0.384 1.536,0 3.072,0 11.136,0 22.272,-3.84 11.52,-4.224 21.12,-11.136 9.984,-7.296 17.664,-16.512 7.68,-9.6 11.52,-20.352 6.144,-17.664 5.376,-32.64 -0.384,-15.36 -4.992,-28.032 -4.608,-12.672 -12.288,-22.656 -7.296,-10.368 -15.36,-18.048 -11.136,-10.752 -24.192,-16.128 -12.672,-5.376 -25.728,-5.376 z"
       id="path42"
       inkscape:connector-curvature="0"
       style="fill:#ffcc00;stroke:#000000;stroke-opacity:1;stroke-width:10;stroke-miterlimit:4;stroke-dasharray:none" />
    <path
       d="m 1370.5834,460.68996 q -28.8,0 -52.992,-10.368 -20.736,-9.216 -34.56,-25.344 -13.44,-16.128 -18.432,-36.864 l 56.064,-13.056 q 2.304,9.984 9.6,16.128 7.296,5.76 16.512,8.832 9.6,2.688 19.968,3.072 10.368,0 19.2,-1.152 6.912,-1.152 15.744,-3.84 8.832,-3.072 16.128,-8.064 7.68,-5.376 12.288,-12.288 4.992,-7.296 4.224,-17.28 -0.768,-5.376 -6.144,-11.52 -5.376,-6.144 -14.208,-10.752 -5.76,-3.072 -12.288,-5.76 -6.528,-2.688 -13.44,-5.376 -6.528,-2.688 -13.824,-5.376 -6.912,-2.688 -13.824,-6.144 -25.344,-12.672 -36.48,-31.104 -12.672,-21.12 -9.984,-51.84 1.152,-21.504 8.832,-39.936 9.6,-23.04 26.88,-37.248 11.52,-8.832 26.112,-13.056 14.592,-4.608 29.184,-2.688 13.44,1.536 24.192,7.296 11.136,5.76 18.816,15.744 6.144,7.68 9.216,15.744 3.072,8.064 4.608,16.128 1.536,8.064 1.536,15.36 0.384,7.296 0.384,13.056 l -57.6,-0.384 q 0,-2.688 0,-6.144 0,-3.456 -0.384,-6.912 -0.384,-3.456 -1.152,-6.528 -0.384,-3.072 -1.536,-4.608 -1.536,-1.536 -4.224,-1.536 -3.456,-0.384 -6.912,0.768 -3.456,0.768 -5.76,2.688 -6.528,4.992 -10.368,14.592 -3.84,9.6 -4.608,22.272 -0.768,7.68 0,11.904 1.152,3.84 1.92,5.76 0.768,1.536 3.456,3.84 2.688,2.304 9.216,5.376 5.376,2.304 10.752,4.608 5.76,2.304 11.904,4.608 8.064,3.072 16.128,6.528 8.448,3.072 16.896,7.68 19.2,10.368 31.488,25.344 16.128,18.816 18.432,42.24 1.92,20.736 -5.76,39.552 -7.296,18.816 -23.424,33.408 -13.056,11.52 -30.336,19.584 -17.28,8.064 -36.864,11.136 -6.528,0.768 -12.672,1.152 -5.76,0.768 -11.904,0.768 z"
       id="path44"
       inkscape:connector-curvature="0"
       style="fill:#ffcc00;stroke:#000000;stroke-opacity:1;stroke-width:10;stroke-miterlimit:4;stroke-dasharray:none" />
    <path
       d="m 1577.1934,456.08196 -57.6,-2.688 q 1.536,-32.64 1.92,-68.352 0.768,-36.096 0.768,-72.192 0,-36.48 -0.384,-71.424 -0.384,-35.328 -0.768,-66.816 l 57.6,-0.768 q 0.384,31.872 0.768,67.2 0.768,35.328 0.768,72.192 0,36.48 -0.768,72.96 -0.768,36.48 -2.304,69.888 z m -0.768,-302.208 -57.216,-5.376 5.376,-55.296001 57.216,5.376 z"
       id="path46"
       inkscape:connector-curvature="0"
       style="fill:#ffcc00;stroke:#000000;stroke-opacity:1;stroke-width:10;stroke-miterlimit:4;stroke-dasharray:none" />
    <path
       d="m 1728.4174,454.54596 q -32.64,0 -62.208,-16.512 -17.28,-9.984 -30.72,-24.192 -13.056,-14.208 -21.12,-31.488 -16.896,-37.248 -9.216,-85.248 3.072,-20.736 10.368,-40.32 7.68,-19.584 18.816,-36.096 8.064,-12.288 16.128,-22.272 8.448,-9.984 17.28,-18.048 23.424,-21.12 50.688,-28.032 17.664,-4.608 36.096,-1.92 18.816,2.688 34.56,12.672 13.44,8.832 21.888,21.12 8.832,11.904 11.52,26.496 l -56.448,10.752 q -0.768,-3.456 -3.072,-5.76 -2.304,-2.304 -4.608,-3.84 -5.376,-3.456 -12.288,-4.608 -6.912,-1.152 -13.056,0.768 -26.112,6.912 -50.304,44.16 -6.912,10.368 -12.288,23.808 -5.376,13.44 -8.064,28.032 -2.688,14.208 -1.92,28.416 1.152,13.824 6.528,25.728 4.224,9.216 11.52,16.896 7.296,7.68 16.128,13.056 9.216,4.992 19.2,7.68 10.368,2.304 20.352,1.152 10.368,-1.152 19.584,-5.376 9.6,-4.608 17.28,-11.52 8.064,-6.912 13.44,-15.744 5.376,-8.832 7.68,-18.816 l 56.064,12.672 q -4.224,18.432 -14.208,35.328 -9.984,16.512 -24.576,29.568 -14.976,13.44 -33.024,21.504 -17.664,7.68 -36.48,9.6 -3.072,0.384 -5.76,0.384 -2.688,0 -5.76,0 z"
       id="path48"
       inkscape:connector-curvature="0"
       style="fill:#ffcc00;stroke:#000000;stroke-opacity:1;stroke-width:10;stroke-miterlimit:4;stroke-dasharray:none" />
    <path
       d="m 1892.8834,454.54596 q -1.536,-39.936 -2.688,-72.576 -0.768,-32.64 -1.536,-61.44 -0.768,-29.184 -0.768,-56.448 0,-27.264 0.384,-56.448 0.384,-29.568 1.152,-62.976 1.152,-33.792 3.072,-75.264001 l 57.6,2.688 q -1.92,40.704001 -3.072,73.728001 -0.768,33.024 -1.152,62.208 -0.384,28.8 -0.384,56.064 0,26.88 0.384,55.68 0.768,28.416 1.536,61.056 1.152,32.256 2.688,71.808 z"
       id="path50"
       inkscape:connector-curvature="0"
       style="fill:#ffcc00;stroke:#000000;stroke-opacity:1;stroke-width:10;stroke-miterlimit:4;stroke-dasharray:none" />
    <path
       d="m 2116.4554,452.62596 q -22.272,0 -43.008,-7.296 -22.272,-7.296 -40.704,-21.888 -19.584,-14.592 -31.488,-34.176 -11.904,-18.816 -17.664,-40.32 -5.76,-21.888 -4.992,-45.312 1.92,-45.696 24.96,-84.096 15.36,-25.728 37.632,-42.24 25.728,-19.2 56.064,-22.272 11.52,-0.768 23.04,1.152 11.904,1.536 23.04,6.144 11.136,4.224 20.736,11.136 9.6,6.912 17.28,15.744 15.744,18.048 21.504,41.472 5.76,23.424 0.384,46.848 -4.608,19.2 -15.744,30.72 -7.68,8.064 -16.512,12.288 -8.832,3.84 -16.512,6.144 -18.816,5.76 -38.784,7.68 -19.968,1.536 -39.936,-0.384 -19.968,-2.304 -38.016,-8.064 1.536,8.832 4.224,16.896 3.072,8.064 8.064,15.744 7.296,11.52 18.048,19.968 11.136,8.064 23.424,12.288 12.672,4.224 25.344,4.224 13.056,0 24.576,-5.376 11.136,-4.992 18.432,-13.824 7.296,-8.832 8.832,-18.432 l 56.832,7.68 q -3.072,24.576 -19.2,45.312 -16.128,20.736 -41.088,31.872 -22.656,10.368 -48.768,10.368 z m -72.576,-185.472 q 22.272,8.832 46.464,9.984 24.576,1.152 47.616,-5.76 3.84,-0.768 5.376,-1.536 1.536,-0.768 2.304,-1.152 0,-0.384 0.384,-1.536 0.384,-1.152 1.152,-3.072 2.304,-9.6 -0.384,-19.584 -2.304,-9.984 -8.832,-17.664 -6.528,-7.68 -16.128,-11.136 -9.6,-3.84 -19.584,-3.072 -13.44,1.152 -26.496,11.136 -13.056,9.6 -23.04,25.728 -2.688,4.224 -4.992,8.832 -1.92,4.224 -3.84,8.832 z"
       id="path52"
       inkscape:connector-curvature="0"
       style="fill:#ffcc00;stroke:#000000;stroke-opacity:1;stroke-width:10;stroke-miterlimit:4;stroke-dasharray:none" />
    <path
       d="m 2334.3334,460.68996 q -28.8,0 -52.992,-10.368 -20.736,-9.216 -34.56,-25.344 -13.44,-16.128 -18.432,-36.864 l 56.064,-13.056 q 2.304,9.984 9.6,16.128 7.296,5.76 16.512,8.832 9.6,2.688 19.968,3.072 10.368,0 19.2,-1.152 6.912,-1.152 15.744,-3.84 8.832,-3.072 16.128,-8.064 7.68,-5.376 12.288,-12.288 4.992,-7.296 4.224,-17.28 -0.768,-5.376 -6.144,-11.52 -5.376,-6.144 -14.208,-10.752 -5.76,-3.072 -12.288,-5.76 -6.528,-2.688 -13.44,-5.376 -6.528,-2.688 -13.824,-5.376 -6.912,-2.688 -13.824,-6.144 -25.344,-12.672 -36.48,-31.104 -12.672,-21.12 -9.984,-51.84 1.152,-21.504 8.832,-39.936 9.6,-23.04 26.88,-37.248 11.52,-8.832 26.112,-13.056 14.592,-4.608 29.184,-2.688 13.44,1.536 24.192,7.296 11.136,5.76 18.816,15.744 6.144,7.68 9.216,15.744 3.072,8.064 4.608,16.128 1.536,8.064 1.536,15.36 0.384,7.296 0.384,13.056 l -57.6,-0.384 q 0,-2.688 0,-6.144 0,-3.456 -0.384,-6.912 -0.384,-3.456 -1.152,-6.528 -0.384,-3.072 -1.536,-4.608 -1.536,-1.536 -4.224,-1.536 -3.456,-0.384 -6.912,0.768 -3.456,0.768 -5.76,2.688 -6.528,4.992 -10.368,14.592 -3.84,9.6 -4.608,22.272 -0.768,7.68 0,11.904 1.152,3.84 1.92,5.76 0.768,1.536 3.456,3.84 2.688,2.304 9.216,5.376 5.376,2.304 10.752,4.608 5.76,2.304 11.904,4.608 8.064,3.072 16.128,6.528 8.448,3.072 16.896,7.68 19.2,10.368 31.488,25.344 16.128,18.816 18.432,42.24 1.92,20.736 -5.76,39.552 -7.296,18.816 -23.424,33.408 -13.056,11.52 -30.336,19.584 -17.28,8.064 -36.864,11.136 -6.528,0.768 -12.672,1.152 -5.76,0.768 -11.904,0.768 z"
       id="path54"
       inkscape:connector-curvature="0"
       style="fill:#ffcc00;stroke:#000000;stroke-opacity:1;stroke-width:10;stroke-miterlimit:4;stroke-dasharray:none" />
  </g>
</svg>
